G04 #@! TF.GenerationSoftware,KiCad,Pcbnew,(5.1.9)-1*
G04 #@! TF.CreationDate,2021-02-11T09:20:13-08:00*
G04 #@! TF.ProjectId,TestOne,54657374-4f6e-4652-9e6b-696361645f70,rev?*
G04 #@! TF.SameCoordinates,Original*
G04 #@! TF.FileFunction,Legend,Bot*
G04 #@! TF.FilePolarity,Positive*
%FSLAX46Y46*%
G04 Gerber Fmt 4.6, Leading zero omitted, Abs format (unit mm)*
G04 Created by KiCad (PCBNEW (5.1.9)-1) date 2021-02-11 09:20:13*
%MOMM*%
%LPD*%
G01*
G04 APERTURE LIST*
%ADD10C,0.120000*%
%ADD11C,0.150000*%
%ADD12R,1.400000X1.200000*%
%ADD13O,1.700000X2.700000*%
%ADD14R,0.500000X2.250000*%
%ADD15R,0.550000X1.500000*%
%ADD16R,1.500000X0.550000*%
%ADD17R,1.800000X1.100000*%
%ADD18C,1.750000*%
%ADD19R,1.905000X1.905000*%
%ADD20C,1.905000*%
%ADD21C,2.250000*%
%ADD22C,3.987800*%
%ADD23R,1.200000X0.900000*%
G04 APERTURE END LIST*
D10*
G04 #@! TO.C,Y1*
X168598600Y-39445200D02*
X164598600Y-39445200D01*
X168598600Y-36145200D02*
X168598600Y-39445200D01*
D11*
G04 #@! TO.C,USB1*
X148575400Y-28600400D02*
X148575400Y-34050400D01*
X156275400Y-28600400D02*
X156275400Y-34050400D01*
X148575400Y-34050400D02*
X156275400Y-34050400D01*
G04 #@! TO.C,U1*
X161112450Y-53577550D02*
X159837450Y-53577550D01*
X171462450Y-54152550D02*
X170787450Y-54152550D01*
X171462450Y-43802550D02*
X170787450Y-43802550D01*
X161112450Y-43802550D02*
X161787450Y-43802550D01*
X161112450Y-54152550D02*
X161787450Y-54152550D01*
X161112450Y-43802550D02*
X161112450Y-44477550D01*
X171462450Y-43802550D02*
X171462450Y-44477550D01*
X171462450Y-54152550D02*
X171462450Y-53477550D01*
X161112450Y-54152550D02*
X161112450Y-53577550D01*
G04 #@! TO.C,SW1*
X150237500Y-56137500D02*
X145037500Y-56137500D01*
X145037500Y-56137500D02*
X145037500Y-61337500D01*
X145037500Y-61337500D02*
X150237500Y-61337500D01*
X150237500Y-61337500D02*
X150237500Y-56137500D01*
X148637500Y-58737500D02*
G75*
G03*
X148637500Y-58737500I-1000000J0D01*
G01*
D10*
G04 #@! TO.C,R4*
X173890000Y-55789564D02*
X173890000Y-55335436D01*
X175360000Y-55789564D02*
X175360000Y-55335436D01*
G04 #@! TO.C,R3*
X157199000Y-40362136D02*
X157199000Y-40816264D01*
X155729000Y-40362136D02*
X155729000Y-40816264D01*
G04 #@! TO.C,R2*
X152458750Y-38327064D02*
X152458750Y-37872936D01*
X153928750Y-38327064D02*
X153928750Y-37872936D01*
G04 #@! TO.C,R1*
X151547500Y-37872936D02*
X151547500Y-38327064D01*
X150077500Y-37872936D02*
X150077500Y-38327064D01*
G04 #@! TO.C,F1*
X143006400Y-42410464D02*
X143006400Y-41206336D01*
X144826400Y-42410464D02*
X144826400Y-41206336D01*
G04 #@! TO.C,D6*
X234838750Y-58434800D02*
X234838750Y-54534800D01*
X232838750Y-58434800D02*
X232838750Y-54534800D01*
X234838750Y-58434800D02*
X232838750Y-58434800D01*
G04 #@! TO.C,D5*
X234680000Y-39384800D02*
X234680000Y-35484800D01*
X232680000Y-39384800D02*
X232680000Y-35484800D01*
X234680000Y-39384800D02*
X232680000Y-39384800D01*
G04 #@! TO.C,D4*
X215630000Y-58434800D02*
X215630000Y-54534800D01*
X213630000Y-58434800D02*
X213630000Y-54534800D01*
X215630000Y-58434800D02*
X213630000Y-58434800D01*
G04 #@! TO.C,D3*
X215630000Y-39384800D02*
X215630000Y-35484800D01*
X213630000Y-39384800D02*
X213630000Y-35484800D01*
X215630000Y-39384800D02*
X213630000Y-39384800D01*
G04 #@! TO.C,D2*
X196580000Y-58434800D02*
X196580000Y-54534800D01*
X194580000Y-58434800D02*
X194580000Y-54534800D01*
X196580000Y-58434800D02*
X194580000Y-58434800D01*
G04 #@! TO.C,D1*
X196580000Y-39384800D02*
X196580000Y-35484800D01*
X194580000Y-39384800D02*
X194580000Y-35484800D01*
X196580000Y-39384800D02*
X194580000Y-39384800D01*
G04 #@! TO.C,C7*
X156509352Y-48855300D02*
X155986848Y-48855300D01*
X156509352Y-47385300D02*
X155986848Y-47385300D01*
G04 #@! TO.C,C6*
X157300600Y-53840748D02*
X157300600Y-54363252D01*
X155830600Y-53840748D02*
X155830600Y-54363252D01*
G04 #@! TO.C,C5*
X162761600Y-37381548D02*
X162761600Y-37904052D01*
X161291600Y-37381548D02*
X161291600Y-37904052D01*
G04 #@! TO.C,C4*
X170715000Y-38005652D02*
X170715000Y-37483148D01*
X172185000Y-38005652D02*
X172185000Y-37483148D01*
G04 #@! TO.C,C3*
X174683750Y-45784402D02*
X174683750Y-45261898D01*
X176153750Y-45784402D02*
X176153750Y-45261898D01*
G04 #@! TO.C,C2*
X170123752Y-58678750D02*
X169601248Y-58678750D01*
X170123752Y-57208750D02*
X169601248Y-57208750D01*
G04 #@! TO.C,C1*
X158808750Y-40742502D02*
X158808750Y-40219998D01*
X160278750Y-40742502D02*
X160278750Y-40219998D01*
G04 #@! TO.C,Y1*
D11*
X167074790Y-35321390D02*
X167074790Y-35797580D01*
X167408123Y-34797580D02*
X167074790Y-35321390D01*
X166741457Y-34797580D01*
X165884314Y-35797580D02*
X166455742Y-35797580D01*
X166170028Y-35797580D02*
X166170028Y-34797580D01*
X166265266Y-34940438D01*
X166360504Y-35035676D01*
X166455742Y-35083295D01*
G04 #@! TO.C,USB1*
X154163495Y-30084780D02*
X154163495Y-30894304D01*
X154115876Y-30989542D01*
X154068257Y-31037161D01*
X153973019Y-31084780D01*
X153782542Y-31084780D01*
X153687304Y-31037161D01*
X153639685Y-30989542D01*
X153592066Y-30894304D01*
X153592066Y-30084780D01*
X153163495Y-31037161D02*
X153020638Y-31084780D01*
X152782542Y-31084780D01*
X152687304Y-31037161D01*
X152639685Y-30989542D01*
X152592066Y-30894304D01*
X152592066Y-30799066D01*
X152639685Y-30703828D01*
X152687304Y-30656209D01*
X152782542Y-30608590D01*
X152973019Y-30560971D01*
X153068257Y-30513352D01*
X153115876Y-30465733D01*
X153163495Y-30370495D01*
X153163495Y-30275257D01*
X153115876Y-30180019D01*
X153068257Y-30132400D01*
X152973019Y-30084780D01*
X152734923Y-30084780D01*
X152592066Y-30132400D01*
X151830161Y-30560971D02*
X151687304Y-30608590D01*
X151639685Y-30656209D01*
X151592066Y-30751447D01*
X151592066Y-30894304D01*
X151639685Y-30989542D01*
X151687304Y-31037161D01*
X151782542Y-31084780D01*
X152163495Y-31084780D01*
X152163495Y-30084780D01*
X151830161Y-30084780D01*
X151734923Y-30132400D01*
X151687304Y-30180019D01*
X151639685Y-30275257D01*
X151639685Y-30370495D01*
X151687304Y-30465733D01*
X151734923Y-30513352D01*
X151830161Y-30560971D01*
X152163495Y-30560971D01*
X150639685Y-31084780D02*
X151211114Y-31084780D01*
X150925400Y-31084780D02*
X150925400Y-30084780D01*
X151020638Y-30227638D01*
X151115876Y-30322876D01*
X151211114Y-30370495D01*
G04 #@! TO.C,U1*
X167049354Y-55879930D02*
X167049354Y-56689454D01*
X167001735Y-56784692D01*
X166954116Y-56832311D01*
X166858878Y-56879930D01*
X166668402Y-56879930D01*
X166573164Y-56832311D01*
X166525545Y-56784692D01*
X166477926Y-56689454D01*
X166477926Y-55879930D01*
X165477926Y-56879930D02*
X166049354Y-56879930D01*
X165763640Y-56879930D02*
X165763640Y-55879930D01*
X165858878Y-56022788D01*
X165954116Y-56118026D01*
X166049354Y-56165645D01*
G04 #@! TO.C,SW1*
X148970833Y-63206261D02*
X148827976Y-63253880D01*
X148589880Y-63253880D01*
X148494642Y-63206261D01*
X148447023Y-63158642D01*
X148399404Y-63063404D01*
X148399404Y-62968166D01*
X148447023Y-62872928D01*
X148494642Y-62825309D01*
X148589880Y-62777690D01*
X148780357Y-62730071D01*
X148875595Y-62682452D01*
X148923214Y-62634833D01*
X148970833Y-62539595D01*
X148970833Y-62444357D01*
X148923214Y-62349119D01*
X148875595Y-62301500D01*
X148780357Y-62253880D01*
X148542261Y-62253880D01*
X148399404Y-62301500D01*
X148066071Y-62253880D02*
X147827976Y-63253880D01*
X147637500Y-62539595D01*
X147447023Y-63253880D01*
X147208928Y-62253880D01*
X146304166Y-63253880D02*
X146875595Y-63253880D01*
X146589880Y-63253880D02*
X146589880Y-62253880D01*
X146685119Y-62396738D01*
X146780357Y-62491976D01*
X146875595Y-62539595D01*
G04 #@! TO.C,R4*
X176727380Y-55395833D02*
X176251190Y-55062500D01*
X176727380Y-54824404D02*
X175727380Y-54824404D01*
X175727380Y-55205357D01*
X175775000Y-55300595D01*
X175822619Y-55348214D01*
X175917857Y-55395833D01*
X176060714Y-55395833D01*
X176155952Y-55348214D01*
X176203571Y-55300595D01*
X176251190Y-55205357D01*
X176251190Y-54824404D01*
X176060714Y-56252976D02*
X176727380Y-56252976D01*
X175679761Y-56014880D02*
X176394047Y-55776785D01*
X176394047Y-56395833D01*
G04 #@! TO.C,R3*
X155266380Y-40422533D02*
X154790190Y-40089200D01*
X155266380Y-39851104D02*
X154266380Y-39851104D01*
X154266380Y-40232057D01*
X154314000Y-40327295D01*
X154361619Y-40374914D01*
X154456857Y-40422533D01*
X154599714Y-40422533D01*
X154694952Y-40374914D01*
X154742571Y-40327295D01*
X154790190Y-40232057D01*
X154790190Y-39851104D01*
X154266380Y-40755866D02*
X154266380Y-41374914D01*
X154647333Y-41041580D01*
X154647333Y-41184438D01*
X154694952Y-41279676D01*
X154742571Y-41327295D01*
X154837809Y-41374914D01*
X155075904Y-41374914D01*
X155171142Y-41327295D01*
X155218761Y-41279676D01*
X155266380Y-41184438D01*
X155266380Y-40898723D01*
X155218761Y-40803485D01*
X155171142Y-40755866D01*
G04 #@! TO.C,R2*
X155296130Y-37933333D02*
X154819940Y-37600000D01*
X155296130Y-37361904D02*
X154296130Y-37361904D01*
X154296130Y-37742857D01*
X154343750Y-37838095D01*
X154391369Y-37885714D01*
X154486607Y-37933333D01*
X154629464Y-37933333D01*
X154724702Y-37885714D01*
X154772321Y-37838095D01*
X154819940Y-37742857D01*
X154819940Y-37361904D01*
X154391369Y-38314285D02*
X154343750Y-38361904D01*
X154296130Y-38457142D01*
X154296130Y-38695238D01*
X154343750Y-38790476D01*
X154391369Y-38838095D01*
X154486607Y-38885714D01*
X154581845Y-38885714D01*
X154724702Y-38838095D01*
X155296130Y-38266666D01*
X155296130Y-38885714D01*
G04 #@! TO.C,R1*
X149614880Y-37933333D02*
X149138690Y-37600000D01*
X149614880Y-37361904D02*
X148614880Y-37361904D01*
X148614880Y-37742857D01*
X148662500Y-37838095D01*
X148710119Y-37885714D01*
X148805357Y-37933333D01*
X148948214Y-37933333D01*
X149043452Y-37885714D01*
X149091071Y-37838095D01*
X149138690Y-37742857D01*
X149138690Y-37361904D01*
X149614880Y-38885714D02*
X149614880Y-38314285D01*
X149614880Y-38600000D02*
X148614880Y-38600000D01*
X148757738Y-38504761D01*
X148852976Y-38409523D01*
X148900595Y-38314285D01*
G04 #@! TO.C,F1*
X145664971Y-41475066D02*
X145664971Y-41141733D01*
X146188780Y-41141733D02*
X145188780Y-41141733D01*
X145188780Y-41617923D01*
X146188780Y-42522685D02*
X146188780Y-41951257D01*
X146188780Y-42236971D02*
X145188780Y-42236971D01*
X145331638Y-42141733D01*
X145426876Y-42046495D01*
X145474495Y-41951257D01*
G04 #@! TO.C,D6*
X236291130Y-55446704D02*
X235291130Y-55446704D01*
X235291130Y-55684800D01*
X235338750Y-55827657D01*
X235433988Y-55922895D01*
X235529226Y-55970514D01*
X235719702Y-56018133D01*
X235862559Y-56018133D01*
X236053035Y-55970514D01*
X236148273Y-55922895D01*
X236243511Y-55827657D01*
X236291130Y-55684800D01*
X236291130Y-55446704D01*
X235291130Y-56875276D02*
X235291130Y-56684800D01*
X235338750Y-56589561D01*
X235386369Y-56541942D01*
X235529226Y-56446704D01*
X235719702Y-56399085D01*
X236100654Y-56399085D01*
X236195892Y-56446704D01*
X236243511Y-56494323D01*
X236291130Y-56589561D01*
X236291130Y-56780038D01*
X236243511Y-56875276D01*
X236195892Y-56922895D01*
X236100654Y-56970514D01*
X235862559Y-56970514D01*
X235767321Y-56922895D01*
X235719702Y-56875276D01*
X235672083Y-56780038D01*
X235672083Y-56589561D01*
X235719702Y-56494323D01*
X235767321Y-56446704D01*
X235862559Y-56399085D01*
G04 #@! TO.C,D5*
X236132380Y-36396704D02*
X235132380Y-36396704D01*
X235132380Y-36634800D01*
X235180000Y-36777657D01*
X235275238Y-36872895D01*
X235370476Y-36920514D01*
X235560952Y-36968133D01*
X235703809Y-36968133D01*
X235894285Y-36920514D01*
X235989523Y-36872895D01*
X236084761Y-36777657D01*
X236132380Y-36634800D01*
X236132380Y-36396704D01*
X235132380Y-37872895D02*
X235132380Y-37396704D01*
X235608571Y-37349085D01*
X235560952Y-37396704D01*
X235513333Y-37491942D01*
X235513333Y-37730038D01*
X235560952Y-37825276D01*
X235608571Y-37872895D01*
X235703809Y-37920514D01*
X235941904Y-37920514D01*
X236037142Y-37872895D01*
X236084761Y-37825276D01*
X236132380Y-37730038D01*
X236132380Y-37491942D01*
X236084761Y-37396704D01*
X236037142Y-37349085D01*
G04 #@! TO.C,D4*
X217082380Y-55446704D02*
X216082380Y-55446704D01*
X216082380Y-55684800D01*
X216130000Y-55827657D01*
X216225238Y-55922895D01*
X216320476Y-55970514D01*
X216510952Y-56018133D01*
X216653809Y-56018133D01*
X216844285Y-55970514D01*
X216939523Y-55922895D01*
X217034761Y-55827657D01*
X217082380Y-55684800D01*
X217082380Y-55446704D01*
X216415714Y-56875276D02*
X217082380Y-56875276D01*
X216034761Y-56637180D02*
X216749047Y-56399085D01*
X216749047Y-57018133D01*
G04 #@! TO.C,D3*
X217082380Y-36396704D02*
X216082380Y-36396704D01*
X216082380Y-36634800D01*
X216130000Y-36777657D01*
X216225238Y-36872895D01*
X216320476Y-36920514D01*
X216510952Y-36968133D01*
X216653809Y-36968133D01*
X216844285Y-36920514D01*
X216939523Y-36872895D01*
X217034761Y-36777657D01*
X217082380Y-36634800D01*
X217082380Y-36396704D01*
X216082380Y-37301466D02*
X216082380Y-37920514D01*
X216463333Y-37587180D01*
X216463333Y-37730038D01*
X216510952Y-37825276D01*
X216558571Y-37872895D01*
X216653809Y-37920514D01*
X216891904Y-37920514D01*
X216987142Y-37872895D01*
X217034761Y-37825276D01*
X217082380Y-37730038D01*
X217082380Y-37444323D01*
X217034761Y-37349085D01*
X216987142Y-37301466D01*
G04 #@! TO.C,D2*
X198032380Y-55446704D02*
X197032380Y-55446704D01*
X197032380Y-55684800D01*
X197080000Y-55827657D01*
X197175238Y-55922895D01*
X197270476Y-55970514D01*
X197460952Y-56018133D01*
X197603809Y-56018133D01*
X197794285Y-55970514D01*
X197889523Y-55922895D01*
X197984761Y-55827657D01*
X198032380Y-55684800D01*
X198032380Y-55446704D01*
X197127619Y-56399085D02*
X197080000Y-56446704D01*
X197032380Y-56541942D01*
X197032380Y-56780038D01*
X197080000Y-56875276D01*
X197127619Y-56922895D01*
X197222857Y-56970514D01*
X197318095Y-56970514D01*
X197460952Y-56922895D01*
X198032380Y-56351466D01*
X198032380Y-56970514D01*
G04 #@! TO.C,D1*
X198032380Y-36396704D02*
X197032380Y-36396704D01*
X197032380Y-36634800D01*
X197080000Y-36777657D01*
X197175238Y-36872895D01*
X197270476Y-36920514D01*
X197460952Y-36968133D01*
X197603809Y-36968133D01*
X197794285Y-36920514D01*
X197889523Y-36872895D01*
X197984761Y-36777657D01*
X198032380Y-36634800D01*
X198032380Y-36396704D01*
X198032380Y-37920514D02*
X198032380Y-37349085D01*
X198032380Y-37634800D02*
X197032380Y-37634800D01*
X197175238Y-37539561D01*
X197270476Y-37444323D01*
X197318095Y-37349085D01*
G04 #@! TO.C,C7*
X156414766Y-46797442D02*
X156462385Y-46845061D01*
X156605242Y-46892680D01*
X156700480Y-46892680D01*
X156843338Y-46845061D01*
X156938576Y-46749823D01*
X156986195Y-46654585D01*
X157033814Y-46464109D01*
X157033814Y-46321252D01*
X156986195Y-46130776D01*
X156938576Y-46035538D01*
X156843338Y-45940300D01*
X156700480Y-45892680D01*
X156605242Y-45892680D01*
X156462385Y-45940300D01*
X156414766Y-45987919D01*
X156081433Y-45892680D02*
X155414766Y-45892680D01*
X155843338Y-46892680D01*
G04 #@! TO.C,C6*
X155242742Y-53935333D02*
X155290361Y-53887714D01*
X155337980Y-53744857D01*
X155337980Y-53649619D01*
X155290361Y-53506761D01*
X155195123Y-53411523D01*
X155099885Y-53363904D01*
X154909409Y-53316285D01*
X154766552Y-53316285D01*
X154576076Y-53363904D01*
X154480838Y-53411523D01*
X154385600Y-53506761D01*
X154337980Y-53649619D01*
X154337980Y-53744857D01*
X154385600Y-53887714D01*
X154433219Y-53935333D01*
X154337980Y-54792476D02*
X154337980Y-54602000D01*
X154385600Y-54506761D01*
X154433219Y-54459142D01*
X154576076Y-54363904D01*
X154766552Y-54316285D01*
X155147504Y-54316285D01*
X155242742Y-54363904D01*
X155290361Y-54411523D01*
X155337980Y-54506761D01*
X155337980Y-54697238D01*
X155290361Y-54792476D01*
X155242742Y-54840095D01*
X155147504Y-54887714D01*
X154909409Y-54887714D01*
X154814171Y-54840095D01*
X154766552Y-54792476D01*
X154718933Y-54697238D01*
X154718933Y-54506761D01*
X154766552Y-54411523D01*
X154814171Y-54363904D01*
X154909409Y-54316285D01*
G04 #@! TO.C,C5*
X160703742Y-37476133D02*
X160751361Y-37428514D01*
X160798980Y-37285657D01*
X160798980Y-37190419D01*
X160751361Y-37047561D01*
X160656123Y-36952323D01*
X160560885Y-36904704D01*
X160370409Y-36857085D01*
X160227552Y-36857085D01*
X160037076Y-36904704D01*
X159941838Y-36952323D01*
X159846600Y-37047561D01*
X159798980Y-37190419D01*
X159798980Y-37285657D01*
X159846600Y-37428514D01*
X159894219Y-37476133D01*
X159798980Y-38380895D02*
X159798980Y-37904704D01*
X160275171Y-37857085D01*
X160227552Y-37904704D01*
X160179933Y-37999942D01*
X160179933Y-38238038D01*
X160227552Y-38333276D01*
X160275171Y-38380895D01*
X160370409Y-38428514D01*
X160608504Y-38428514D01*
X160703742Y-38380895D01*
X160751361Y-38333276D01*
X160798980Y-38238038D01*
X160798980Y-37999942D01*
X160751361Y-37904704D01*
X160703742Y-37857085D01*
G04 #@! TO.C,C4*
X173487142Y-37577733D02*
X173534761Y-37530114D01*
X173582380Y-37387257D01*
X173582380Y-37292019D01*
X173534761Y-37149161D01*
X173439523Y-37053923D01*
X173344285Y-37006304D01*
X173153809Y-36958685D01*
X173010952Y-36958685D01*
X172820476Y-37006304D01*
X172725238Y-37053923D01*
X172630000Y-37149161D01*
X172582380Y-37292019D01*
X172582380Y-37387257D01*
X172630000Y-37530114D01*
X172677619Y-37577733D01*
X172915714Y-38434876D02*
X173582380Y-38434876D01*
X172534761Y-38196780D02*
X173249047Y-37958685D01*
X173249047Y-38577733D01*
G04 #@! TO.C,C3*
X177455892Y-45356483D02*
X177503511Y-45308864D01*
X177551130Y-45166007D01*
X177551130Y-45070769D01*
X177503511Y-44927911D01*
X177408273Y-44832673D01*
X177313035Y-44785054D01*
X177122559Y-44737435D01*
X176979702Y-44737435D01*
X176789226Y-44785054D01*
X176693988Y-44832673D01*
X176598750Y-44927911D01*
X176551130Y-45070769D01*
X176551130Y-45166007D01*
X176598750Y-45308864D01*
X176646369Y-45356483D01*
X176551130Y-45689816D02*
X176551130Y-46308864D01*
X176932083Y-45975530D01*
X176932083Y-46118388D01*
X176979702Y-46213626D01*
X177027321Y-46261245D01*
X177122559Y-46308864D01*
X177360654Y-46308864D01*
X177455892Y-46261245D01*
X177503511Y-46213626D01*
X177551130Y-46118388D01*
X177551130Y-45832673D01*
X177503511Y-45737435D01*
X177455892Y-45689816D01*
G04 #@! TO.C,C2*
X170029166Y-56620892D02*
X170076785Y-56668511D01*
X170219642Y-56716130D01*
X170314880Y-56716130D01*
X170457738Y-56668511D01*
X170552976Y-56573273D01*
X170600595Y-56478035D01*
X170648214Y-56287559D01*
X170648214Y-56144702D01*
X170600595Y-55954226D01*
X170552976Y-55858988D01*
X170457738Y-55763750D01*
X170314880Y-55716130D01*
X170219642Y-55716130D01*
X170076785Y-55763750D01*
X170029166Y-55811369D01*
X169648214Y-55811369D02*
X169600595Y-55763750D01*
X169505357Y-55716130D01*
X169267261Y-55716130D01*
X169172023Y-55763750D01*
X169124404Y-55811369D01*
X169076785Y-55906607D01*
X169076785Y-56001845D01*
X169124404Y-56144702D01*
X169695833Y-56716130D01*
X169076785Y-56716130D01*
G04 #@! TO.C,C1*
X161580892Y-40314583D02*
X161628511Y-40266964D01*
X161676130Y-40124107D01*
X161676130Y-40028869D01*
X161628511Y-39886011D01*
X161533273Y-39790773D01*
X161438035Y-39743154D01*
X161247559Y-39695535D01*
X161104702Y-39695535D01*
X160914226Y-39743154D01*
X160818988Y-39790773D01*
X160723750Y-39886011D01*
X160676130Y-40028869D01*
X160676130Y-40124107D01*
X160723750Y-40266964D01*
X160771369Y-40314583D01*
X161676130Y-41266964D02*
X161676130Y-40695535D01*
X161676130Y-40981250D02*
X160676130Y-40981250D01*
X160818988Y-40886011D01*
X160914226Y-40790773D01*
X160961845Y-40695535D01*
G04 #@! TD*
%LPC*%
D12*
G04 #@! TO.C,Y1*
X167698600Y-36945200D03*
X165498600Y-36945200D03*
X165498600Y-38645200D03*
X167698600Y-38645200D03*
G04 #@! TD*
D13*
G04 #@! TO.C,USB1*
X148775400Y-28600400D03*
X156075400Y-28600400D03*
X156075400Y-33100400D03*
X148775400Y-33100400D03*
D14*
X150825400Y-33100400D03*
X151625400Y-33100400D03*
X152425400Y-33100400D03*
X153225400Y-33100400D03*
X154025400Y-33100400D03*
G04 #@! TD*
D15*
G04 #@! TO.C,U1*
X162287450Y-54677550D03*
X163087450Y-54677550D03*
X163887450Y-54677550D03*
X164687450Y-54677550D03*
X165487450Y-54677550D03*
X166287450Y-54677550D03*
X167087450Y-54677550D03*
X167887450Y-54677550D03*
X168687450Y-54677550D03*
X169487450Y-54677550D03*
X170287450Y-54677550D03*
D16*
X171987450Y-52977550D03*
X171987450Y-52177550D03*
X171987450Y-51377550D03*
X171987450Y-50577550D03*
X171987450Y-49777550D03*
X171987450Y-48977550D03*
X171987450Y-48177550D03*
X171987450Y-47377550D03*
X171987450Y-46577550D03*
X171987450Y-45777550D03*
X171987450Y-44977550D03*
D15*
X170287450Y-43277550D03*
X169487450Y-43277550D03*
X168687450Y-43277550D03*
X167887450Y-43277550D03*
X167087450Y-43277550D03*
X166287450Y-43277550D03*
X165487450Y-43277550D03*
X164687450Y-43277550D03*
X163887450Y-43277550D03*
X163087450Y-43277550D03*
X162287450Y-43277550D03*
D16*
X160587450Y-44977550D03*
X160587450Y-45777550D03*
X160587450Y-46577550D03*
X160587450Y-47377550D03*
X160587450Y-48177550D03*
X160587450Y-48977550D03*
X160587450Y-49777550D03*
X160587450Y-50577550D03*
X160587450Y-51377550D03*
X160587450Y-52177550D03*
X160587450Y-52977550D03*
G04 #@! TD*
D17*
G04 #@! TO.C,SW1*
X150737500Y-60587500D03*
X144537500Y-56887500D03*
X150737500Y-56887500D03*
X144537500Y-60587500D03*
G04 #@! TD*
G04 #@! TO.C,R4*
G36*
G01*
X175075001Y-55162500D02*
X174174999Y-55162500D01*
G75*
G02*
X173925000Y-54912501I0J249999D01*
G01*
X173925000Y-54387499D01*
G75*
G02*
X174174999Y-54137500I249999J0D01*
G01*
X175075001Y-54137500D01*
G75*
G02*
X175325000Y-54387499I0J-249999D01*
G01*
X175325000Y-54912501D01*
G75*
G02*
X175075001Y-55162500I-249999J0D01*
G01*
G37*
G36*
G01*
X175075001Y-56987500D02*
X174174999Y-56987500D01*
G75*
G02*
X173925000Y-56737501I0J249999D01*
G01*
X173925000Y-56212499D01*
G75*
G02*
X174174999Y-55962500I249999J0D01*
G01*
X175075001Y-55962500D01*
G75*
G02*
X175325000Y-56212499I0J-249999D01*
G01*
X175325000Y-56737501D01*
G75*
G02*
X175075001Y-56987500I-249999J0D01*
G01*
G37*
G04 #@! TD*
G04 #@! TO.C,R3*
G36*
G01*
X156013999Y-40989200D02*
X156914001Y-40989200D01*
G75*
G02*
X157164000Y-41239199I0J-249999D01*
G01*
X157164000Y-41764201D01*
G75*
G02*
X156914001Y-42014200I-249999J0D01*
G01*
X156013999Y-42014200D01*
G75*
G02*
X155764000Y-41764201I0J249999D01*
G01*
X155764000Y-41239199D01*
G75*
G02*
X156013999Y-40989200I249999J0D01*
G01*
G37*
G36*
G01*
X156013999Y-39164200D02*
X156914001Y-39164200D01*
G75*
G02*
X157164000Y-39414199I0J-249999D01*
G01*
X157164000Y-39939201D01*
G75*
G02*
X156914001Y-40189200I-249999J0D01*
G01*
X156013999Y-40189200D01*
G75*
G02*
X155764000Y-39939201I0J249999D01*
G01*
X155764000Y-39414199D01*
G75*
G02*
X156013999Y-39164200I249999J0D01*
G01*
G37*
G04 #@! TD*
G04 #@! TO.C,R2*
G36*
G01*
X153643751Y-37700000D02*
X152743749Y-37700000D01*
G75*
G02*
X152493750Y-37450001I0J249999D01*
G01*
X152493750Y-36924999D01*
G75*
G02*
X152743749Y-36675000I249999J0D01*
G01*
X153643751Y-36675000D01*
G75*
G02*
X153893750Y-36924999I0J-249999D01*
G01*
X153893750Y-37450001D01*
G75*
G02*
X153643751Y-37700000I-249999J0D01*
G01*
G37*
G36*
G01*
X153643751Y-39525000D02*
X152743749Y-39525000D01*
G75*
G02*
X152493750Y-39275001I0J249999D01*
G01*
X152493750Y-38749999D01*
G75*
G02*
X152743749Y-38500000I249999J0D01*
G01*
X153643751Y-38500000D01*
G75*
G02*
X153893750Y-38749999I0J-249999D01*
G01*
X153893750Y-39275001D01*
G75*
G02*
X153643751Y-39525000I-249999J0D01*
G01*
G37*
G04 #@! TD*
G04 #@! TO.C,R1*
G36*
G01*
X150362499Y-38500000D02*
X151262501Y-38500000D01*
G75*
G02*
X151512500Y-38749999I0J-249999D01*
G01*
X151512500Y-39275001D01*
G75*
G02*
X151262501Y-39525000I-249999J0D01*
G01*
X150362499Y-39525000D01*
G75*
G02*
X150112500Y-39275001I0J249999D01*
G01*
X150112500Y-38749999D01*
G75*
G02*
X150362499Y-38500000I249999J0D01*
G01*
G37*
G36*
G01*
X150362499Y-36675000D02*
X151262501Y-36675000D01*
G75*
G02*
X151512500Y-36924999I0J-249999D01*
G01*
X151512500Y-37450001D01*
G75*
G02*
X151262501Y-37700000I-249999J0D01*
G01*
X150362499Y-37700000D01*
G75*
G02*
X150112500Y-37450001I0J249999D01*
G01*
X150112500Y-36924999D01*
G75*
G02*
X150362499Y-36675000I249999J0D01*
G01*
G37*
G04 #@! TD*
D18*
G04 #@! TO.C,MX6*
X230505000Y-55549800D03*
X220345000Y-55549800D03*
D19*
X226695000Y-60629800D03*
D20*
X224155000Y-60629800D03*
D21*
X222925000Y-51549800D03*
D22*
X225425000Y-55549800D03*
G36*
G01*
X220863688Y-53847150D02*
X220863683Y-53847145D01*
G75*
G02*
X220777655Y-52258483I751317J837345D01*
G01*
X222087657Y-50798483D01*
G75*
G02*
X223676319Y-50712455I837345J-751317D01*
G01*
X223676319Y-50712455D01*
G75*
G02*
X223762347Y-52301117I-751317J-837345D01*
G01*
X222452345Y-53761117D01*
G75*
G02*
X220863683Y-53847145I-837345J751317D01*
G01*
G37*
D21*
X227965000Y-50469800D03*
G36*
G01*
X227848483Y-52172195D02*
X227847597Y-52172134D01*
G75*
G02*
X226802666Y-50972397I77403J1122334D01*
G01*
X226842666Y-50392397D01*
G75*
G02*
X228042403Y-49347466I1122334J-77403D01*
G01*
X228042403Y-49347466D01*
G75*
G02*
X229087334Y-50547203I-77403J-1122334D01*
G01*
X229047334Y-51127203D01*
G75*
G02*
X227847597Y-52172134I-1122334J77403D01*
G01*
G37*
G04 #@! TD*
D18*
G04 #@! TO.C,MX5*
X230505000Y-36499800D03*
X220345000Y-36499800D03*
D19*
X226695000Y-41579800D03*
D20*
X224155000Y-41579800D03*
D21*
X222925000Y-32499800D03*
D22*
X225425000Y-36499800D03*
G36*
G01*
X220863688Y-34797150D02*
X220863683Y-34797145D01*
G75*
G02*
X220777655Y-33208483I751317J837345D01*
G01*
X222087657Y-31748483D01*
G75*
G02*
X223676319Y-31662455I837345J-751317D01*
G01*
X223676319Y-31662455D01*
G75*
G02*
X223762347Y-33251117I-751317J-837345D01*
G01*
X222452345Y-34711117D01*
G75*
G02*
X220863683Y-34797145I-837345J751317D01*
G01*
G37*
D21*
X227965000Y-31419800D03*
G36*
G01*
X227848483Y-33122195D02*
X227847597Y-33122134D01*
G75*
G02*
X226802666Y-31922397I77403J1122334D01*
G01*
X226842666Y-31342397D01*
G75*
G02*
X228042403Y-30297466I1122334J-77403D01*
G01*
X228042403Y-30297466D01*
G75*
G02*
X229087334Y-31497203I-77403J-1122334D01*
G01*
X229047334Y-32077203D01*
G75*
G02*
X227847597Y-33122134I-1122334J77403D01*
G01*
G37*
G04 #@! TD*
D18*
G04 #@! TO.C,MX4*
X211455000Y-55549800D03*
X201295000Y-55549800D03*
D19*
X207645000Y-60629800D03*
D20*
X205105000Y-60629800D03*
D21*
X203875000Y-51549800D03*
D22*
X206375000Y-55549800D03*
G36*
G01*
X201813688Y-53847150D02*
X201813683Y-53847145D01*
G75*
G02*
X201727655Y-52258483I751317J837345D01*
G01*
X203037657Y-50798483D01*
G75*
G02*
X204626319Y-50712455I837345J-751317D01*
G01*
X204626319Y-50712455D01*
G75*
G02*
X204712347Y-52301117I-751317J-837345D01*
G01*
X203402345Y-53761117D01*
G75*
G02*
X201813683Y-53847145I-837345J751317D01*
G01*
G37*
D21*
X208915000Y-50469800D03*
G36*
G01*
X208798483Y-52172195D02*
X208797597Y-52172134D01*
G75*
G02*
X207752666Y-50972397I77403J1122334D01*
G01*
X207792666Y-50392397D01*
G75*
G02*
X208992403Y-49347466I1122334J-77403D01*
G01*
X208992403Y-49347466D01*
G75*
G02*
X210037334Y-50547203I-77403J-1122334D01*
G01*
X209997334Y-51127203D01*
G75*
G02*
X208797597Y-52172134I-1122334J77403D01*
G01*
G37*
G04 #@! TD*
D18*
G04 #@! TO.C,MX3*
X211455000Y-36499800D03*
X201295000Y-36499800D03*
D19*
X207645000Y-41579800D03*
D20*
X205105000Y-41579800D03*
D21*
X203875000Y-32499800D03*
D22*
X206375000Y-36499800D03*
G36*
G01*
X201813688Y-34797150D02*
X201813683Y-34797145D01*
G75*
G02*
X201727655Y-33208483I751317J837345D01*
G01*
X203037657Y-31748483D01*
G75*
G02*
X204626319Y-31662455I837345J-751317D01*
G01*
X204626319Y-31662455D01*
G75*
G02*
X204712347Y-33251117I-751317J-837345D01*
G01*
X203402345Y-34711117D01*
G75*
G02*
X201813683Y-34797145I-837345J751317D01*
G01*
G37*
D21*
X208915000Y-31419800D03*
G36*
G01*
X208798483Y-33122195D02*
X208797597Y-33122134D01*
G75*
G02*
X207752666Y-31922397I77403J1122334D01*
G01*
X207792666Y-31342397D01*
G75*
G02*
X208992403Y-30297466I1122334J-77403D01*
G01*
X208992403Y-30297466D01*
G75*
G02*
X210037334Y-31497203I-77403J-1122334D01*
G01*
X209997334Y-32077203D01*
G75*
G02*
X208797597Y-33122134I-1122334J77403D01*
G01*
G37*
G04 #@! TD*
D18*
G04 #@! TO.C,MX2*
X192405000Y-55549800D03*
X182245000Y-55549800D03*
D19*
X188595000Y-60629800D03*
D20*
X186055000Y-60629800D03*
D21*
X184825000Y-51549800D03*
D22*
X187325000Y-55549800D03*
G36*
G01*
X182763688Y-53847150D02*
X182763683Y-53847145D01*
G75*
G02*
X182677655Y-52258483I751317J837345D01*
G01*
X183987657Y-50798483D01*
G75*
G02*
X185576319Y-50712455I837345J-751317D01*
G01*
X185576319Y-50712455D01*
G75*
G02*
X185662347Y-52301117I-751317J-837345D01*
G01*
X184352345Y-53761117D01*
G75*
G02*
X182763683Y-53847145I-837345J751317D01*
G01*
G37*
D21*
X189865000Y-50469800D03*
G36*
G01*
X189748483Y-52172195D02*
X189747597Y-52172134D01*
G75*
G02*
X188702666Y-50972397I77403J1122334D01*
G01*
X188742666Y-50392397D01*
G75*
G02*
X189942403Y-49347466I1122334J-77403D01*
G01*
X189942403Y-49347466D01*
G75*
G02*
X190987334Y-50547203I-77403J-1122334D01*
G01*
X190947334Y-51127203D01*
G75*
G02*
X189747597Y-52172134I-1122334J77403D01*
G01*
G37*
G04 #@! TD*
D18*
G04 #@! TO.C,MX1*
X192405000Y-36499800D03*
X182245000Y-36499800D03*
D19*
X188595000Y-41579800D03*
D20*
X186055000Y-41579800D03*
D21*
X184825000Y-32499800D03*
D22*
X187325000Y-36499800D03*
G36*
G01*
X182763688Y-34797150D02*
X182763683Y-34797145D01*
G75*
G02*
X182677655Y-33208483I751317J837345D01*
G01*
X183987657Y-31748483D01*
G75*
G02*
X185576319Y-31662455I837345J-751317D01*
G01*
X185576319Y-31662455D01*
G75*
G02*
X185662347Y-33251117I-751317J-837345D01*
G01*
X184352345Y-34711117D01*
G75*
G02*
X182763683Y-34797145I-837345J751317D01*
G01*
G37*
D21*
X189865000Y-31419800D03*
G36*
G01*
X189748483Y-33122195D02*
X189747597Y-33122134D01*
G75*
G02*
X188702666Y-31922397I77403J1122334D01*
G01*
X188742666Y-31342397D01*
G75*
G02*
X189942403Y-30297466I1122334J-77403D01*
G01*
X189942403Y-30297466D01*
G75*
G02*
X190987334Y-31497203I-77403J-1122334D01*
G01*
X190947334Y-32077203D01*
G75*
G02*
X189747597Y-33122134I-1122334J77403D01*
G01*
G37*
G04 #@! TD*
G04 #@! TO.C,F1*
G36*
G01*
X144541400Y-41033400D02*
X143291400Y-41033400D01*
G75*
G02*
X143041400Y-40783400I0J250000D01*
G01*
X143041400Y-40033400D01*
G75*
G02*
X143291400Y-39783400I250000J0D01*
G01*
X144541400Y-39783400D01*
G75*
G02*
X144791400Y-40033400I0J-250000D01*
G01*
X144791400Y-40783400D01*
G75*
G02*
X144541400Y-41033400I-250000J0D01*
G01*
G37*
G36*
G01*
X144541400Y-43833400D02*
X143291400Y-43833400D01*
G75*
G02*
X143041400Y-43583400I0J250000D01*
G01*
X143041400Y-42833400D01*
G75*
G02*
X143291400Y-42583400I250000J0D01*
G01*
X144541400Y-42583400D01*
G75*
G02*
X144791400Y-42833400I0J-250000D01*
G01*
X144791400Y-43583400D01*
G75*
G02*
X144541400Y-43833400I-250000J0D01*
G01*
G37*
G04 #@! TD*
D23*
G04 #@! TO.C,D6*
X233838750Y-54534800D03*
X233838750Y-57834800D03*
G04 #@! TD*
G04 #@! TO.C,D5*
X233680000Y-35484800D03*
X233680000Y-38784800D03*
G04 #@! TD*
G04 #@! TO.C,D4*
X214630000Y-54534800D03*
X214630000Y-57834800D03*
G04 #@! TD*
G04 #@! TO.C,D3*
X214630000Y-35484800D03*
X214630000Y-38784800D03*
G04 #@! TD*
G04 #@! TO.C,D2*
X195580000Y-54534800D03*
X195580000Y-57834800D03*
G04 #@! TD*
G04 #@! TO.C,D1*
X195580000Y-35484800D03*
X195580000Y-38784800D03*
G04 #@! TD*
G04 #@! TO.C,C7*
G36*
G01*
X155798100Y-47645300D02*
X155798100Y-48595300D01*
G75*
G02*
X155548100Y-48845300I-250000J0D01*
G01*
X155048100Y-48845300D01*
G75*
G02*
X154798100Y-48595300I0J250000D01*
G01*
X154798100Y-47645300D01*
G75*
G02*
X155048100Y-47395300I250000J0D01*
G01*
X155548100Y-47395300D01*
G75*
G02*
X155798100Y-47645300I0J-250000D01*
G01*
G37*
G36*
G01*
X157698100Y-47645300D02*
X157698100Y-48595300D01*
G75*
G02*
X157448100Y-48845300I-250000J0D01*
G01*
X156948100Y-48845300D01*
G75*
G02*
X156698100Y-48595300I0J250000D01*
G01*
X156698100Y-47645300D01*
G75*
G02*
X156948100Y-47395300I250000J0D01*
G01*
X157448100Y-47395300D01*
G75*
G02*
X157698100Y-47645300I0J-250000D01*
G01*
G37*
G04 #@! TD*
G04 #@! TO.C,C6*
G36*
G01*
X156090600Y-54552000D02*
X157040600Y-54552000D01*
G75*
G02*
X157290600Y-54802000I0J-250000D01*
G01*
X157290600Y-55302000D01*
G75*
G02*
X157040600Y-55552000I-250000J0D01*
G01*
X156090600Y-55552000D01*
G75*
G02*
X155840600Y-55302000I0J250000D01*
G01*
X155840600Y-54802000D01*
G75*
G02*
X156090600Y-54552000I250000J0D01*
G01*
G37*
G36*
G01*
X156090600Y-52652000D02*
X157040600Y-52652000D01*
G75*
G02*
X157290600Y-52902000I0J-250000D01*
G01*
X157290600Y-53402000D01*
G75*
G02*
X157040600Y-53652000I-250000J0D01*
G01*
X156090600Y-53652000D01*
G75*
G02*
X155840600Y-53402000I0J250000D01*
G01*
X155840600Y-52902000D01*
G75*
G02*
X156090600Y-52652000I250000J0D01*
G01*
G37*
G04 #@! TD*
G04 #@! TO.C,C5*
G36*
G01*
X161551600Y-38092800D02*
X162501600Y-38092800D01*
G75*
G02*
X162751600Y-38342800I0J-250000D01*
G01*
X162751600Y-38842800D01*
G75*
G02*
X162501600Y-39092800I-250000J0D01*
G01*
X161551600Y-39092800D01*
G75*
G02*
X161301600Y-38842800I0J250000D01*
G01*
X161301600Y-38342800D01*
G75*
G02*
X161551600Y-38092800I250000J0D01*
G01*
G37*
G36*
G01*
X161551600Y-36192800D02*
X162501600Y-36192800D01*
G75*
G02*
X162751600Y-36442800I0J-250000D01*
G01*
X162751600Y-36942800D01*
G75*
G02*
X162501600Y-37192800I-250000J0D01*
G01*
X161551600Y-37192800D01*
G75*
G02*
X161301600Y-36942800I0J250000D01*
G01*
X161301600Y-36442800D01*
G75*
G02*
X161551600Y-36192800I250000J0D01*
G01*
G37*
G04 #@! TD*
G04 #@! TO.C,C4*
G36*
G01*
X171925000Y-37294400D02*
X170975000Y-37294400D01*
G75*
G02*
X170725000Y-37044400I0J250000D01*
G01*
X170725000Y-36544400D01*
G75*
G02*
X170975000Y-36294400I250000J0D01*
G01*
X171925000Y-36294400D01*
G75*
G02*
X172175000Y-36544400I0J-250000D01*
G01*
X172175000Y-37044400D01*
G75*
G02*
X171925000Y-37294400I-250000J0D01*
G01*
G37*
G36*
G01*
X171925000Y-39194400D02*
X170975000Y-39194400D01*
G75*
G02*
X170725000Y-38944400I0J250000D01*
G01*
X170725000Y-38444400D01*
G75*
G02*
X170975000Y-38194400I250000J0D01*
G01*
X171925000Y-38194400D01*
G75*
G02*
X172175000Y-38444400I0J-250000D01*
G01*
X172175000Y-38944400D01*
G75*
G02*
X171925000Y-39194400I-250000J0D01*
G01*
G37*
G04 #@! TD*
G04 #@! TO.C,C3*
G36*
G01*
X175893750Y-45073150D02*
X174943750Y-45073150D01*
G75*
G02*
X174693750Y-44823150I0J250000D01*
G01*
X174693750Y-44323150D01*
G75*
G02*
X174943750Y-44073150I250000J0D01*
G01*
X175893750Y-44073150D01*
G75*
G02*
X176143750Y-44323150I0J-250000D01*
G01*
X176143750Y-44823150D01*
G75*
G02*
X175893750Y-45073150I-250000J0D01*
G01*
G37*
G36*
G01*
X175893750Y-46973150D02*
X174943750Y-46973150D01*
G75*
G02*
X174693750Y-46723150I0J250000D01*
G01*
X174693750Y-46223150D01*
G75*
G02*
X174943750Y-45973150I250000J0D01*
G01*
X175893750Y-45973150D01*
G75*
G02*
X176143750Y-46223150I0J-250000D01*
G01*
X176143750Y-46723150D01*
G75*
G02*
X175893750Y-46973150I-250000J0D01*
G01*
G37*
G04 #@! TD*
G04 #@! TO.C,C2*
G36*
G01*
X169412500Y-57468750D02*
X169412500Y-58418750D01*
G75*
G02*
X169162500Y-58668750I-250000J0D01*
G01*
X168662500Y-58668750D01*
G75*
G02*
X168412500Y-58418750I0J250000D01*
G01*
X168412500Y-57468750D01*
G75*
G02*
X168662500Y-57218750I250000J0D01*
G01*
X169162500Y-57218750D01*
G75*
G02*
X169412500Y-57468750I0J-250000D01*
G01*
G37*
G36*
G01*
X171312500Y-57468750D02*
X171312500Y-58418750D01*
G75*
G02*
X171062500Y-58668750I-250000J0D01*
G01*
X170562500Y-58668750D01*
G75*
G02*
X170312500Y-58418750I0J250000D01*
G01*
X170312500Y-57468750D01*
G75*
G02*
X170562500Y-57218750I250000J0D01*
G01*
X171062500Y-57218750D01*
G75*
G02*
X171312500Y-57468750I0J-250000D01*
G01*
G37*
G04 #@! TD*
G04 #@! TO.C,C1*
G36*
G01*
X160018750Y-40031250D02*
X159068750Y-40031250D01*
G75*
G02*
X158818750Y-39781250I0J250000D01*
G01*
X158818750Y-39281250D01*
G75*
G02*
X159068750Y-39031250I250000J0D01*
G01*
X160018750Y-39031250D01*
G75*
G02*
X160268750Y-39281250I0J-250000D01*
G01*
X160268750Y-39781250D01*
G75*
G02*
X160018750Y-40031250I-250000J0D01*
G01*
G37*
G36*
G01*
X160018750Y-41931250D02*
X159068750Y-41931250D01*
G75*
G02*
X158818750Y-41681250I0J250000D01*
G01*
X158818750Y-41181250D01*
G75*
G02*
X159068750Y-40931250I250000J0D01*
G01*
X160018750Y-40931250D01*
G75*
G02*
X160268750Y-41181250I0J-250000D01*
G01*
X160268750Y-41681250D01*
G75*
G02*
X160018750Y-41931250I-250000J0D01*
G01*
G37*
G04 #@! TD*
M02*
