M48
; DRILL file {KiCad (5.1.9)-1} date 02/11/21 09:20:58
; FORMAT={-:-/ absolute / inch / decimal}
; #@! TF.CreationDate,2021-02-11T09:20:58-08:00
; #@! TF.GenerationSoftware,Kicad,Pcbnew,(5.1.9)-1
; #@! TF.FileFunction,Plated,1,2,PTH
FMAT,2
INCH
T1C0.0157
T2C0.0276
T3C0.0409
T4C0.0579
%
G90
G05
T1
X6.016Y-2.23
X6.108Y-1.634
X6.2175Y-1.551
X6.2315Y-2.0599
X6.232Y-1.871
X6.788Y-2.306
X6.962Y-1.828
T3
X7.325Y-1.637
X7.325Y-2.387
X7.425Y-1.637
X7.425Y-2.387
X8.075Y-1.637
X8.075Y-2.387
X8.175Y-1.637
X8.175Y-2.387
X8.825Y-1.637
X8.825Y-2.387
X8.925Y-1.637
X8.925Y-2.387
T4
X7.225Y-1.337
X7.225Y-2.087
X7.2766Y-1.2795
X7.2766Y-2.0295
X7.4734Y-1.2598
X7.4734Y-2.0098
X7.475Y-1.237
X7.475Y-1.987
X7.975Y-1.337
X7.975Y-2.087
X8.0266Y-1.2795
X8.0266Y-2.0295
X8.2234Y-1.2598
X8.2234Y-2.0098
X8.225Y-1.237
X8.225Y-1.987
X8.725Y-1.337
X8.725Y-2.087
X8.7766Y-1.2795
X8.7766Y-2.0295
X8.9734Y-1.2598
X8.9734Y-2.0098
X8.975Y-1.237
X8.975Y-1.987
T2
G00X5.8573Y-1.1024
M15
G01X5.8573Y-1.1496
M16
G05
G00X5.8573Y-1.2795
M15
G01X5.8573Y-1.3268
M16
G05
G00X6.1447Y-1.1024
M15
G01X6.1447Y-1.1496
M16
G05
G00X6.1447Y-1.2795
M15
G01X6.1447Y-1.3268
M16
G05
T0
M30
