G04 #@! TF.GenerationSoftware,KiCad,Pcbnew,(5.1.9)-1*
G04 #@! TF.CreationDate,2021-02-11T09:23:31-08:00*
G04 #@! TF.ProjectId,TestOne,54657374-4f6e-4652-9e6b-696361645f70,rev?*
G04 #@! TF.SameCoordinates,Original*
G04 #@! TF.FileFunction,Copper,L1,Top*
G04 #@! TF.FilePolarity,Positive*
%FSLAX46Y46*%
G04 Gerber Fmt 4.6, Leading zero omitted, Abs format (unit mm)*
G04 Created by KiCad (PCBNEW (5.1.9)-1) date 2021-02-11 09:23:31*
%MOMM*%
%LPD*%
G01*
G04 APERTURE LIST*
G04 #@! TA.AperFunction,ComponentPad*
%ADD10O,1.700000X2.700000*%
G04 #@! TD*
G04 #@! TA.AperFunction,ComponentPad*
%ADD11R,1.905000X1.905000*%
G04 #@! TD*
G04 #@! TA.AperFunction,ComponentPad*
%ADD12C,1.905000*%
G04 #@! TD*
G04 #@! TA.AperFunction,ComponentPad*
%ADD13C,2.250000*%
G04 #@! TD*
G04 #@! TA.AperFunction,ViaPad*
%ADD14C,0.800000*%
G04 #@! TD*
G04 #@! TA.AperFunction,Conductor*
%ADD15C,0.381000*%
G04 #@! TD*
G04 #@! TA.AperFunction,Conductor*
%ADD16C,0.254000*%
G04 #@! TD*
G04 APERTURE END LIST*
D10*
G04 #@! TO.P,USB1,6*
G04 #@! TO.N,Net-(USB1-Pad6)*
X148775400Y-28600400D03*
X156075400Y-28600400D03*
X156075400Y-33100400D03*
X148775400Y-33100400D03*
G04 #@! TD*
D11*
G04 #@! TO.P,MX6,4*
G04 #@! TO.N,N/C*
X226695000Y-60629800D03*
D12*
G04 #@! TO.P,MX6,3*
X224155000Y-60629800D03*
D13*
G04 #@! TO.P,MX6,1*
G04 #@! TO.N,COL2*
X222925000Y-51549800D03*
G04 #@! TA.AperFunction,ComponentPad*
G36*
G01*
X220863688Y-53847150D02*
X220863683Y-53847145D01*
G75*
G02*
X220777655Y-52258483I751317J837345D01*
G01*
X222087657Y-50798483D01*
G75*
G02*
X223676319Y-50712455I837345J-751317D01*
G01*
X223676319Y-50712455D01*
G75*
G02*
X223762347Y-52301117I-751317J-837345D01*
G01*
X222452345Y-53761117D01*
G75*
G02*
X220863683Y-53847145I-837345J751317D01*
G01*
G37*
G04 #@! TD.AperFunction*
G04 #@! TO.P,MX6,2*
G04 #@! TO.N,Net-(D6-Pad2)*
X227965000Y-50469800D03*
G04 #@! TA.AperFunction,ComponentPad*
G36*
G01*
X227848483Y-52172195D02*
X227847597Y-52172134D01*
G75*
G02*
X226802666Y-50972397I77403J1122334D01*
G01*
X226842666Y-50392397D01*
G75*
G02*
X228042403Y-49347466I1122334J-77403D01*
G01*
X228042403Y-49347466D01*
G75*
G02*
X229087334Y-50547203I-77403J-1122334D01*
G01*
X229047334Y-51127203D01*
G75*
G02*
X227847597Y-52172134I-1122334J77403D01*
G01*
G37*
G04 #@! TD.AperFunction*
G04 #@! TD*
D11*
G04 #@! TO.P,MX5,4*
G04 #@! TO.N,N/C*
X226695000Y-41579800D03*
D12*
G04 #@! TO.P,MX5,3*
X224155000Y-41579800D03*
D13*
G04 #@! TO.P,MX5,1*
G04 #@! TO.N,COL2*
X222925000Y-32499800D03*
G04 #@! TA.AperFunction,ComponentPad*
G36*
G01*
X220863688Y-34797150D02*
X220863683Y-34797145D01*
G75*
G02*
X220777655Y-33208483I751317J837345D01*
G01*
X222087657Y-31748483D01*
G75*
G02*
X223676319Y-31662455I837345J-751317D01*
G01*
X223676319Y-31662455D01*
G75*
G02*
X223762347Y-33251117I-751317J-837345D01*
G01*
X222452345Y-34711117D01*
G75*
G02*
X220863683Y-34797145I-837345J751317D01*
G01*
G37*
G04 #@! TD.AperFunction*
G04 #@! TO.P,MX5,2*
G04 #@! TO.N,Net-(D5-Pad2)*
X227965000Y-31419800D03*
G04 #@! TA.AperFunction,ComponentPad*
G36*
G01*
X227848483Y-33122195D02*
X227847597Y-33122134D01*
G75*
G02*
X226802666Y-31922397I77403J1122334D01*
G01*
X226842666Y-31342397D01*
G75*
G02*
X228042403Y-30297466I1122334J-77403D01*
G01*
X228042403Y-30297466D01*
G75*
G02*
X229087334Y-31497203I-77403J-1122334D01*
G01*
X229047334Y-32077203D01*
G75*
G02*
X227847597Y-33122134I-1122334J77403D01*
G01*
G37*
G04 #@! TD.AperFunction*
G04 #@! TD*
D11*
G04 #@! TO.P,MX4,4*
G04 #@! TO.N,N/C*
X207645000Y-60629800D03*
D12*
G04 #@! TO.P,MX4,3*
X205105000Y-60629800D03*
D13*
G04 #@! TO.P,MX4,1*
G04 #@! TO.N,COL1*
X203875000Y-51549800D03*
G04 #@! TA.AperFunction,ComponentPad*
G36*
G01*
X201813688Y-53847150D02*
X201813683Y-53847145D01*
G75*
G02*
X201727655Y-52258483I751317J837345D01*
G01*
X203037657Y-50798483D01*
G75*
G02*
X204626319Y-50712455I837345J-751317D01*
G01*
X204626319Y-50712455D01*
G75*
G02*
X204712347Y-52301117I-751317J-837345D01*
G01*
X203402345Y-53761117D01*
G75*
G02*
X201813683Y-53847145I-837345J751317D01*
G01*
G37*
G04 #@! TD.AperFunction*
G04 #@! TO.P,MX4,2*
G04 #@! TO.N,Net-(D4-Pad2)*
X208915000Y-50469800D03*
G04 #@! TA.AperFunction,ComponentPad*
G36*
G01*
X208798483Y-52172195D02*
X208797597Y-52172134D01*
G75*
G02*
X207752666Y-50972397I77403J1122334D01*
G01*
X207792666Y-50392397D01*
G75*
G02*
X208992403Y-49347466I1122334J-77403D01*
G01*
X208992403Y-49347466D01*
G75*
G02*
X210037334Y-50547203I-77403J-1122334D01*
G01*
X209997334Y-51127203D01*
G75*
G02*
X208797597Y-52172134I-1122334J77403D01*
G01*
G37*
G04 #@! TD.AperFunction*
G04 #@! TD*
D11*
G04 #@! TO.P,MX3,4*
G04 #@! TO.N,N/C*
X207645000Y-41579800D03*
D12*
G04 #@! TO.P,MX3,3*
X205105000Y-41579800D03*
D13*
G04 #@! TO.P,MX3,1*
G04 #@! TO.N,COL1*
X203875000Y-32499800D03*
G04 #@! TA.AperFunction,ComponentPad*
G36*
G01*
X201813688Y-34797150D02*
X201813683Y-34797145D01*
G75*
G02*
X201727655Y-33208483I751317J837345D01*
G01*
X203037657Y-31748483D01*
G75*
G02*
X204626319Y-31662455I837345J-751317D01*
G01*
X204626319Y-31662455D01*
G75*
G02*
X204712347Y-33251117I-751317J-837345D01*
G01*
X203402345Y-34711117D01*
G75*
G02*
X201813683Y-34797145I-837345J751317D01*
G01*
G37*
G04 #@! TD.AperFunction*
G04 #@! TO.P,MX3,2*
G04 #@! TO.N,Net-(D3-Pad2)*
X208915000Y-31419800D03*
G04 #@! TA.AperFunction,ComponentPad*
G36*
G01*
X208798483Y-33122195D02*
X208797597Y-33122134D01*
G75*
G02*
X207752666Y-31922397I77403J1122334D01*
G01*
X207792666Y-31342397D01*
G75*
G02*
X208992403Y-30297466I1122334J-77403D01*
G01*
X208992403Y-30297466D01*
G75*
G02*
X210037334Y-31497203I-77403J-1122334D01*
G01*
X209997334Y-32077203D01*
G75*
G02*
X208797597Y-33122134I-1122334J77403D01*
G01*
G37*
G04 #@! TD.AperFunction*
G04 #@! TD*
D11*
G04 #@! TO.P,MX2,4*
G04 #@! TO.N,N/C*
X188595000Y-60629800D03*
D12*
G04 #@! TO.P,MX2,3*
X186055000Y-60629800D03*
D13*
G04 #@! TO.P,MX2,1*
G04 #@! TO.N,COL0*
X184825000Y-51549800D03*
G04 #@! TA.AperFunction,ComponentPad*
G36*
G01*
X182763688Y-53847150D02*
X182763683Y-53847145D01*
G75*
G02*
X182677655Y-52258483I751317J837345D01*
G01*
X183987657Y-50798483D01*
G75*
G02*
X185576319Y-50712455I837345J-751317D01*
G01*
X185576319Y-50712455D01*
G75*
G02*
X185662347Y-52301117I-751317J-837345D01*
G01*
X184352345Y-53761117D01*
G75*
G02*
X182763683Y-53847145I-837345J751317D01*
G01*
G37*
G04 #@! TD.AperFunction*
G04 #@! TO.P,MX2,2*
G04 #@! TO.N,Net-(D2-Pad2)*
X189865000Y-50469800D03*
G04 #@! TA.AperFunction,ComponentPad*
G36*
G01*
X189748483Y-52172195D02*
X189747597Y-52172134D01*
G75*
G02*
X188702666Y-50972397I77403J1122334D01*
G01*
X188742666Y-50392397D01*
G75*
G02*
X189942403Y-49347466I1122334J-77403D01*
G01*
X189942403Y-49347466D01*
G75*
G02*
X190987334Y-50547203I-77403J-1122334D01*
G01*
X190947334Y-51127203D01*
G75*
G02*
X189747597Y-52172134I-1122334J77403D01*
G01*
G37*
G04 #@! TD.AperFunction*
G04 #@! TD*
D11*
G04 #@! TO.P,MX1,4*
G04 #@! TO.N,N/C*
X188595000Y-41579800D03*
D12*
G04 #@! TO.P,MX1,3*
X186055000Y-41579800D03*
D13*
G04 #@! TO.P,MX1,1*
G04 #@! TO.N,COL0*
X184825000Y-32499800D03*
G04 #@! TA.AperFunction,ComponentPad*
G36*
G01*
X182763688Y-34797150D02*
X182763683Y-34797145D01*
G75*
G02*
X182677655Y-33208483I751317J837345D01*
G01*
X183987657Y-31748483D01*
G75*
G02*
X185576319Y-31662455I837345J-751317D01*
G01*
X185576319Y-31662455D01*
G75*
G02*
X185662347Y-33251117I-751317J-837345D01*
G01*
X184352345Y-34711117D01*
G75*
G02*
X182763683Y-34797145I-837345J751317D01*
G01*
G37*
G04 #@! TD.AperFunction*
G04 #@! TO.P,MX1,2*
G04 #@! TO.N,Net-(D1-Pad2)*
X189865000Y-31419800D03*
G04 #@! TA.AperFunction,ComponentPad*
G36*
G01*
X189748483Y-33122195D02*
X189747597Y-33122134D01*
G75*
G02*
X188702666Y-31922397I77403J1122334D01*
G01*
X188742666Y-31342397D01*
G75*
G02*
X189942403Y-30297466I1122334J-77403D01*
G01*
X189942403Y-30297466D01*
G75*
G02*
X190987334Y-31497203I-77403J-1122334D01*
G01*
X190947334Y-32077203D01*
G75*
G02*
X189747597Y-33122134I-1122334J77403D01*
G01*
G37*
G04 #@! TD.AperFunction*
G04 #@! TD*
D14*
G04 #@! TO.N,+5V*
X176834800Y-46431200D03*
X172415200Y-58572400D03*
X157924500Y-39395400D03*
X158292800Y-47523400D03*
X158280100Y-52320750D03*
G04 #@! TO.N,Net-(R3-Pad2)*
X155143200Y-41503600D03*
X152806400Y-56642000D03*
G04 #@! TD*
D15*
G04 #@! TO.N,+5V*
X176834800Y-46431200D02*
X176834800Y-57099200D01*
X176834800Y-57099200D02*
X176834800Y-57302400D01*
X175564800Y-58572400D02*
X172415200Y-58572400D01*
X176834800Y-57302400D02*
X175564800Y-58572400D01*
X172415200Y-58572400D02*
X163118800Y-58572400D01*
X163118800Y-58572400D02*
X158292800Y-53746400D01*
X158292800Y-39725600D02*
X157937200Y-39370000D01*
X157937200Y-39382700D02*
X157924500Y-39395400D01*
X157937200Y-39370000D02*
X157937200Y-39382700D01*
X158292800Y-47523400D02*
X158292800Y-39725600D01*
X158292800Y-52308050D02*
X158280100Y-52320750D01*
X158292800Y-53746400D02*
X158292800Y-52133500D01*
X158292800Y-52133500D02*
X158292800Y-52308050D01*
X158292800Y-52133500D02*
X158292800Y-47523400D01*
D16*
G04 #@! TO.N,COL0*
X183515000Y-36353750D02*
X183515000Y-53009800D01*
X183515000Y-33959800D02*
X183515000Y-36353750D01*
G04 #@! TO.N,COL1*
X202565000Y-33959800D02*
X202565000Y-53009800D01*
G04 #@! TO.N,Net-(R3-Pad2)*
X155143200Y-41503600D02*
X154127200Y-42519600D01*
X154127200Y-42519600D02*
X154127200Y-55219600D01*
X154127200Y-55321200D02*
X152806400Y-56642000D01*
X154127200Y-55219600D02*
X154127200Y-55321200D01*
G04 #@! TO.N,COL2*
X221615000Y-36353750D02*
X221615000Y-53009800D01*
X221615000Y-33959800D02*
X221615000Y-36353750D01*
G04 #@! TD*
M02*
